<mxfile host="65bd71144e">
    <diagram name="PÃ¡gina-1" id="gd-VPFGAJJ6Jh6VFhRKT">
        <mxGraphModel dx="800" dy="483" grid="0" gridSize="10" guides="1" tooltips="1" connect="1" arrows="1" fold="1" page="1" pageScale="1" pageWidth="827" pageHeight="1169" background="#ffffff" math="0" shadow="0">
            <root>
                <mxCell id="0"/>
                <mxCell id="1" parent="0"/>
                <mxCell id="R71kWVGDYZqG1tfcmJxz-2" value="" style="rounded=1;html=1;fontColor=#3333FF;whiteSpace=wrap;labelBorderColor=default;fillColor=#FFFFFF;strokeColor=#007FFF;strokeWidth=2;" parent="1" vertex="1">
                    <mxGeometry x="40" y="160" width="160" height="240" as="geometry"/>
                </mxCell>
                <mxCell id="R71kWVGDYZqG1tfcmJxz-4" value="&lt;b&gt;&lt;font style=&quot;font-size: 15px; color: rgb(255, 255, 255);&quot;&gt;Frontend&lt;/font&gt;&lt;/b&gt;" style="strokeWidth=0;html=1;shape=mxgraph.flowchart.terminator;whiteSpace=wrap;fillColor=#007FFF;strokeColor=#007FFF;shadow=0;perimeter=rectanglePerimeter;fixDash=0;" parent="1" vertex="1">
                    <mxGeometry x="77.5" y="142" width="85" height="40" as="geometry"/>
                </mxCell>
                <mxCell id="R71kWVGDYZqG1tfcmJxz-7" value="" style="fontColor=#0066CC;verticalAlign=top;verticalLabelPosition=bottom;labelPosition=center;align=center;html=1;outlineConnect=0;fillColor=none;strokeColor=#007FFF;gradientColor=none;gradientDirection=north;strokeWidth=2;shape=mxgraph.networks.terminal;" parent="1" vertex="1">
                    <mxGeometry x="80" y="247.5" width="80" height="65" as="geometry"/>
                </mxCell>
                <mxCell id="R71kWVGDYZqG1tfcmJxz-9" value="" style="rounded=1;html=1;fontColor=#3333FF;whiteSpace=wrap;labelBorderColor=default;fillColor=#FFFFFF;strokeColor=#007FFF;strokeWidth=2;" parent="1" vertex="1">
                    <mxGeometry x="360" y="160" width="160" height="240" as="geometry"/>
                </mxCell>
                <mxCell id="R71kWVGDYZqG1tfcmJxz-8" value="&lt;span style=&quot;font-size: 15px;&quot;&gt;&lt;b&gt;&lt;font style=&quot;color: rgb(255, 255, 255);&quot;&gt;Backend&lt;/font&gt;&lt;/b&gt;&lt;/span&gt;" style="strokeWidth=0;html=1;shape=mxgraph.flowchart.terminator;whiteSpace=wrap;fillColor=#007FFF;strokeColor=#007FFF;shadow=0;perimeter=rectanglePerimeter;fixDash=0;fontColor=#FFFFFF;" parent="1" vertex="1">
                    <mxGeometry x="397.5" y="142" width="85" height="40" as="geometry"/>
                </mxCell>
                <mxCell id="R71kWVGDYZqG1tfcmJxz-11" value="" style="endArrow=block;html=1;rounded=0;exitX=0.994;exitY=0.167;exitDx=0;exitDy=0;exitPerimeter=0;strokeWidth=2;dashed=1;endFill=1;strokeColor=#007FFF;" parent="1" source="R71kWVGDYZqG1tfcmJxz-2" edge="1">
                    <mxGeometry width="50" height="50" relative="1" as="geometry">
                        <mxPoint x="220" y="300" as="sourcePoint"/>
                        <mxPoint x="357" y="200" as="targetPoint"/>
                    </mxGeometry>
                </mxCell>
                <mxCell id="R71kWVGDYZqG1tfcmJxz-12" value="" style="endArrow=block;html=1;rounded=0;exitX=-0.006;exitY=0.829;exitDx=0;exitDy=0;exitPerimeter=0;strokeWidth=2;endFill=1;dashed=1;strokeColor=#007FFF;" parent="1" source="R71kWVGDYZqG1tfcmJxz-9" edge="1">
                    <mxGeometry width="50" height="50" relative="1" as="geometry">
                        <mxPoint x="350" y="360" as="sourcePoint"/>
                        <mxPoint x="203" y="359" as="targetPoint"/>
                    </mxGeometry>
                </mxCell>
                <mxCell id="R71kWVGDYZqG1tfcmJxz-13" value="&lt;font&gt;Request&lt;/font&gt;" style="text;html=1;align=center;verticalAlign=middle;whiteSpace=wrap;rounded=0;fontColor=#007FFF;fontStyle=1;fontSize=14;" parent="1" vertex="1">
                    <mxGeometry x="250" y="174" width="60" height="30" as="geometry"/>
                </mxCell>
                <mxCell id="R71kWVGDYZqG1tfcmJxz-14" value="&lt;font&gt;Response&lt;/font&gt;" style="text;html=1;align=center;verticalAlign=middle;whiteSpace=wrap;rounded=0;fontColor=#007FFF;fontStyle=1;fontSize=14;" parent="1" vertex="1">
                    <mxGeometry x="250" y="334" width="60" height="30" as="geometry"/>
                </mxCell>
                <mxCell id="R71kWVGDYZqG1tfcmJxz-16" value="" style="rounded=1;html=1;fontColor=#3333FF;whiteSpace=wrap;labelBorderColor=default;fillColor=#FFFFFF;strokeColor=#007FFF;strokeWidth=2;" parent="1" vertex="1">
                    <mxGeometry x="640" y="160" width="160" height="240" as="geometry"/>
                </mxCell>
                <mxCell id="R71kWVGDYZqG1tfcmJxz-15" value="&lt;span style=&quot;font-size: 15px;&quot;&gt;&lt;b&gt;&lt;font style=&quot;color: rgb(255, 255, 255);&quot;&gt;Database&lt;/font&gt;&lt;/b&gt;&lt;/span&gt;" style="strokeWidth=0;html=1;shape=mxgraph.flowchart.terminator;whiteSpace=wrap;fillColor=#007FFF;strokeColor=#007FFF;shadow=0;perimeter=rectanglePerimeter;fixDash=0;fontColor=#FFFFFF;" parent="1" vertex="1">
                    <mxGeometry x="677.5" y="142" width="85" height="40" as="geometry"/>
                </mxCell>
                <mxCell id="R71kWVGDYZqG1tfcmJxz-17" value="" style="endArrow=block;html=1;rounded=0;exitX=1;exitY=0.5;exitDx=0;exitDy=0;entryX=0;entryY=0.5;entryDx=0;entryDy=0;endFill=1;strokeWidth=2;dashed=1;strokeColor=#007FFF;" parent="1" source="R71kWVGDYZqG1tfcmJxz-9" target="R71kWVGDYZqG1tfcmJxz-16" edge="1">
                    <mxGeometry width="50" height="50" relative="1" as="geometry">
                        <mxPoint x="470" y="300" as="sourcePoint"/>
                        <mxPoint x="520" y="250" as="targetPoint"/>
                    </mxGeometry>
                </mxCell>
                <mxCell id="R71kWVGDYZqG1tfcmJxz-18" value="" style="fontColor=#0066CC;verticalAlign=top;verticalLabelPosition=bottom;labelPosition=center;align=center;html=1;outlineConnect=0;fillColor=#FFFFFF;strokeColor=#007FFF;gradientColor=none;gradientDirection=north;strokeWidth=2;shape=mxgraph.networks.storage;" parent="1" vertex="1">
                    <mxGeometry x="670" y="224" width="100" height="100" as="geometry"/>
                </mxCell>
                <mxCell id="R71kWVGDYZqG1tfcmJxz-20" value="" style="fontColor=#0066CC;verticalAlign=top;verticalLabelPosition=bottom;labelPosition=center;align=center;html=1;outlineConnect=0;fillColor=#FFFFFF;strokeColor=#007FFF;gradientColor=#007FFF;gradientDirection=radial;strokeWidth=2;shape=mxgraph.networks.server;" parent="1" vertex="1">
                    <mxGeometry x="395" y="224" width="90" height="100" as="geometry"/>
                </mxCell>
                <mxCell id="R71kWVGDYZqG1tfcmJxz-21" value="&lt;b&gt;ASP.NET Core&lt;/b&gt;" style="text;html=1;align=center;verticalAlign=middle;whiteSpace=wrap;rounded=0;fontColor=#007FFF;" parent="1" vertex="1">
                    <mxGeometry x="396" y="340" width="93" height="30" as="geometry"/>
                </mxCell>
                <mxCell id="R71kWVGDYZqG1tfcmJxz-22" value="&lt;b&gt;SQL Server&lt;/b&gt;" style="text;html=1;align=center;verticalAlign=middle;whiteSpace=wrap;rounded=0;fontColor=#007FFF;" parent="1" vertex="1">
                    <mxGeometry x="676" y="340" width="93" height="30" as="geometry"/>
                </mxCell>
                <mxCell id="R71kWVGDYZqG1tfcmJxz-23" value="&lt;b&gt;React JS&lt;/b&gt;" style="text;html=1;align=center;verticalAlign=middle;whiteSpace=wrap;rounded=0;fontColor=#007FFF;" parent="1" vertex="1">
                    <mxGeometry x="77.5" y="334" width="93" height="30" as="geometry"/>
                </mxCell>
                <mxCell id="R71kWVGDYZqG1tfcmJxz-24" value="&lt;font&gt;EF Core&lt;/font&gt;" style="text;html=1;align=center;verticalAlign=middle;whiteSpace=wrap;rounded=0;fontColor=#007FFF;fontStyle=1;fontSize=14;" parent="1" vertex="1">
                    <mxGeometry x="550" y="254" width="60" height="30" as="geometry"/>
                </mxCell>
            </root>
        </mxGraphModel>
    </diagram>
</mxfile>